<?xml version="1.0" encoding="iso-8859-1"?>
<!-- Generator: Adobe Illustrator 19.0.0, SVG Export Plug-In . SVG Version: 6.00 Build 0)  -->
<svg version="1.1" id="Layer_1" xmlns="http://www.w3.org/2000/svg" xmlns:xlink="http://www.w3.org/1999/xlink" x="0px" y="0px"
	 viewBox="0 0 512 512" style="enable-background:new 0 0 512 512;" xml:space="preserve">
<g transform="translate(1 1)">
	<polygon style="fill:#FD9808;" points="357.4,365.933 255,365.933 237.933,365.933 186.733,502.467 255,502.467 408.6,502.467 	"/>
	<polygon style="fill:#FFFFFF;" points="272.067,365.933 169.667,365.933 152.6,365.933 101.4,502.467 169.667,502.467 
		323.267,502.467 	"/>
	<polygon style="fill:#FFDD09;" points="340.333,365.933 255,365.933 169.667,365.933 127,502.467 255,502.467 383,502.467 	"/>
	<path style="fill:#FD9808;" d="M348.867,365.933H161.133c-28.16,0-51.2-23.04-51.2-51.2h290.133
		C400.067,342.893,377.027,365.933,348.867,365.933"/>
	<path style="fill:#FFDD09;" d="M314.733,365.933H169.667c-28.16,0-51.2-23.04-51.2-51.2h247.467
		C365.933,342.893,342.893,365.933,314.733,365.933"/>
	<path style="fill:#FFFFFF;" d="M144.067,314.733c0,28.16,23.04,51.2,51.2,51.2h-34.133c-28.16,0-51.2-23.04-51.2-51.2H144.067z"/>
	<path style="fill:#FD9808;" d="M502.467,314.733H7.533l0,0c0-65.707,53.76-119.467,119.467-119.467h256
		C448.707,195.267,502.467,249.027,502.467,314.733L502.467,314.733z"/>
	<path style="fill:#FFDD09;" d="M476.867,314.733H7.533l0,0c0-65.707,53.76-119.467,119.467-119.467h230.4
		C423.107,195.267,476.867,249.027,476.867,314.733L476.867,314.733z"/>
	<path style="fill:#FFFFFF;" d="M127,195.267h25.6c-65.707,0-119.467,53.76-119.467,119.467h-25.6
		C7.533,249.027,61.293,195.267,127,195.267"/>
	<g>
		<path style="fill:#1CD759;" d="M152.6,255c0,14.507-11.093,25.6-25.6,25.6s-25.6-11.093-25.6-25.6c0-14.507,11.093-25.6,25.6-25.6
			S152.6,240.493,152.6,255"/>
		<path style="fill:#1CD759;" d="M272.067,255c0,14.507-11.093,25.6-25.6,25.6c-14.507,0-25.6-11.093-25.6-25.6
			c0-14.507,11.093-25.6,25.6-25.6C260.973,229.4,272.067,240.493,272.067,255"/>
		<path style="fill:#1CD759;" d="M391.533,255c0,14.507-11.093,25.6-25.6,25.6s-25.6-11.093-25.6-25.6
			c0-14.507,11.093-25.6,25.6-25.6S391.533,240.493,391.533,255"/>
	</g>
	<path style="fill:#FD9808;" d="M400.067,195.267V152.6C400.067,72.387,335.213,7.533,255,7.533S109.933,72.387,109.933,152.6
		v42.667"/>
	<path style="fill:#FFDD09;" d="M374.467,195.267V152.6c0-80.213-58.88-145.067-132.267-145.067S109.933,72.387,109.933,152.6
		v42.667"/>
	<path style="fill:#FFFFFF;" d="M256.707,7.533c2.56,0,4.267,0,6.827,0C193.56,10.947,137.24,74.093,137.24,152.6v42.667h-25.6
		V152.6C111.64,72.387,176.493,7.533,256.707,7.533"/>
	<path d="M178.2,118.467c-5.12,0-8.533-3.413-8.533-8.533c0-33.28,26.453-59.733,59.733-59.733c5.12,0,8.533,3.413,8.533,8.533
		s-3.413,8.533-8.533,8.533c-23.893,0-42.667,18.773-42.667,42.667C186.733,115.053,183.32,118.467,178.2,118.467z"/>
	<path d="M502.467,323.267H7.533c-5.12,0-8.533-3.413-8.533-8.533c0-70.827,57.173-128,128-128h256c70.827,0,128,57.173,128,128
		C511,319.853,507.587,323.267,502.467,323.267z M16.067,306.2h477.867C489.667,249.027,441.88,203.8,383,203.8H127
		C68.973,203.8,21.187,249.027,16.067,306.2z"/>
	<path d="M408.6,195.267h-17.067V152.6c0-75.093-61.44-136.533-136.533-136.533S118.467,77.507,118.467,152.6v42.667H101.4V152.6
		C101.4,68.12,170.52-1,255-1s153.6,69.12,153.6,153.6V195.267z"/>
	<path d="M348.867,374.467H161.133c-33.28,0-59.733-26.453-59.733-59.733V306.2h307.2v8.533
		C408.6,348.013,382.147,374.467,348.867,374.467z M119.32,323.267c4.267,19.627,21.333,34.133,41.813,34.133h187.733
		c20.48,0,37.547-14.507,41.813-34.133H119.32z"/>
	<path d="M263.533,408.6c0,5.12-3.413,8.533-8.533,8.533s-8.533-3.413-8.533-8.533c0-5.12,3.413-8.533,8.533-8.533
		S263.533,403.48,263.533,408.6"/>
	<path d="M255,468.333c-5.12,0-8.533-3.413-8.533-8.533v-17.067c0-5.12,3.413-8.533,8.533-8.533s8.533,3.413,8.533,8.533V459.8
		C263.533,464.92,260.12,468.333,255,468.333z"/>
	<path d="M331.8,408.6c0,5.12-3.413,8.533-8.533,8.533c-5.12,0-8.533-3.413-8.533-8.533c0-5.12,3.413-8.533,8.533-8.533
		C328.387,400.067,331.8,403.48,331.8,408.6"/>
	<path d="M323.267,468.333c-5.12,0-8.533-3.413-8.533-8.533v-17.067c0-5.12,3.413-8.533,8.533-8.533c5.12,0,8.533,3.413,8.533,8.533
		V459.8C331.8,464.92,328.387,468.333,323.267,468.333z"/>
	<path d="M195.267,408.6c0,5.12-3.413,8.533-8.533,8.533c-5.12,0-8.533-3.413-8.533-8.533c0-5.12,3.413-8.533,8.533-8.533
		C191.853,400.067,195.267,403.48,195.267,408.6"/>
	<path d="M186.733,468.333c-5.12,0-8.533-3.413-8.533-8.533v-17.067c0-5.12,3.413-8.533,8.533-8.533c5.12,0,8.533,3.413,8.533,8.533
		V459.8C195.267,464.92,191.853,468.333,186.733,468.333z"/>
	<path d="M408.6,511H101.4c-2.56,0-5.12-1.707-6.827-3.413c-1.707-2.56-1.707-5.12-0.853-7.68l51.2-136.533
		c0.853-3.413,4.267-5.12,7.68-5.12h204.8c3.413,0,6.827,2.56,7.68,5.12l51.2,136.533c0.853,2.56,0.853,5.973-0.853,7.68
		C413.72,509.293,411.16,511,408.6,511z M113.347,493.933H395.8l-44.373-119.467H158.573L113.347,493.933z"/>
	<path d="M127,289.133c-18.773,0-34.133-15.36-34.133-34.133s15.36-34.133,34.133-34.133s34.133,15.36,34.133,34.133
		S145.773,289.133,127,289.133z M127,237.933c-9.387,0-17.067,7.68-17.067,17.067s7.68,17.067,17.067,17.067
		s17.067-7.68,17.067-17.067S136.387,237.933,127,237.933z"/>
	<path d="M246.467,289.133c-18.773,0-34.133-15.36-34.133-34.133s15.36-34.133,34.133-34.133S280.6,236.227,280.6,255
		S265.24,289.133,246.467,289.133z M246.467,237.933c-9.387,0-17.067,7.68-17.067,17.067s7.68,17.067,17.067,17.067
		s17.067-7.68,17.067-17.067S255.853,237.933,246.467,237.933z"/>
	<path d="M365.933,289.133c-18.773,0-34.133-15.36-34.133-34.133s15.36-34.133,34.133-34.133s34.133,15.36,34.133,34.133
		S384.707,289.133,365.933,289.133z M365.933,237.933c-9.387,0-17.067,7.68-17.067,17.067s7.68,17.067,17.067,17.067
		S383,264.387,383,255S375.32,237.933,365.933,237.933z"/>
</g>
<g>
</g>
<g>
</g>
<g>
</g>
<g>
</g>
<g>
</g>
<g>
</g>
<g>
</g>
<g>
</g>
<g>
</g>
<g>
</g>
<g>
</g>
<g>
</g>
<g>
</g>
<g>
</g>
<g>
</g>
</svg>
